<svg xmlns="http://www.w3.org/2000/svg" width="16" height="16" fill="currentColor" viewBox="0 0 16 16">
  <g class="jbs-diamond+line-fill">
    <g class="icon">
      <mask id="a" class="a">
        <path fill-rule="evenodd" d="M13.15 7.5 8 2.35 2.85 7.5H0v1h2.836L8 13.664 13.164 8.5H16v-1h-2.85Z" clip-rule="evenodd"/>
      </mask>
      <path fill-rule="evenodd" d="M13.15 7.5 8 2.35 2.85 7.5H0v1h2.836L8 13.664 13.164 8.5H16v-1h-2.85Z" clip-rule="evenodd"/>
      <path d="m8 2.35.707-.707L8 .936l-.707.707L8 2.35Zm5.15 5.15-.707.707.293.293h.414v-1Zm-10.3 0v1h.414l.293-.293L2.85 7.5ZM0 7.5v-1h-1v1h1Zm0 1h-1v1h1v-1Zm2.836 0 .707-.707-.292-.293h-.415v1ZM8 13.664l-.707.707.707.707.707-.707L8 13.664ZM13.164 8.5v-1h-.415l-.292.293.707.707ZM16 8.5v1h1v-1h-1Zm0-1h1v-1h-1v1ZM7.293 3.057l5.15 5.15 1.414-1.414-5.15-5.15-1.414 1.414Zm-3.736 5.15 5.15-5.15-1.414-1.414-5.15 5.15 1.414 1.414ZM2.85 6.5H0v2h2.85v-2ZM-1 7.5v1h2v-1h-2Zm1 2h2.836v-2H0v2Zm8.707 3.457L3.543 7.793 2.13 9.207l5.164 5.164 1.414-1.414Zm3.75-5.164-5.164 5.164 1.414 1.414 5.164-5.164-1.414-1.414Zm.707 1.707H16v-2h-2.836v2ZM17 8.5v-1h-2v1h2Zm-1-2h-2.85v2H16v-2Z" mask="url(#a)"/>
    </g>
  </g>
</svg>
