<svg xmlns="http://www.w3.org/2000/svg" width="16" height="16" fill="currentColor" viewBox="0 0 16 16">
  <g class="jbs-question-circle-outline">
    <path fill-rule="evenodd" d="M15 8A7 7 0 111 8a7 7 0 0114 0zm1 0A8 8 0 110 8a8 8 0 0116 0zM7.243 9.535v.763h1.375v-.51a1.455 1.455 0 01.141-.707 2.1 2.1 0 01.521-.558l.38-.335c.322-.252.584-.573.766-.94a2.63 2.63 0 00.203-1.073 2.072 2.072 0 00-.627-1.578C9.59 4.2 8.97 4 8.142 4c-.501-.003-.999.084-1.468.259a5.649 5.649 0 00-1.074.515l.43.873c.279-.16.575-.284.884-.372.291-.084.593-.128.896-.129a1.28 1.28 0 01.93.296 1.085 1.085 0 01.317.822c.005.23-.04.457-.132.666-.114.214-.274.4-.467.547l-.406.331c-.27.195-.49.45-.644.745-.123.312-.179.647-.165.982zm.011 3.083c.18.168.418.26.664.258v-.005a.941.941 0 00.668-.253.992.992 0 000-1.375.93.93 0 00-.668-.259.95.95 0 00-.664.259.982.982 0 000 1.375z" class="icon" clip-rule="evenodd"/>
  </g>
</svg>
