<svg xmlns="http://www.w3.org/2000/svg" width="16" height="16" fill="currentColor" viewBox="0 0 16 16">
  <g class="jbs-settings">
    <path fill-rule="evenodd" d="M9.983.832l-.162-.65L9.16.086a7.935 7.935 0 00-2.318 0l-.662.098-.162.65-.229.916c-.22.077-.434.166-.644.267l-.81-.486-.573-.345-.538.4a7.951 7.951 0 00-1.639 1.638l-.4.538.346.574.486.809c-.1.21-.19.425-.267.644l-.917.229-.65.162-.097.662a7.935 7.935 0 000 2.318l.098.662.65.162.916.229c.077.22.166.434.267.644l-.486.81-.345.573.4.538a7.95 7.95 0 001.638 1.639l.538.4.574-.346.809-.486c.21.1.425.19.644.267l.229.917.162.65.662.097c.768.113 1.55.113 2.318 0l.662-.098.162-.65.229-.916a6.63 6.63 0 00.644-.267l.81.486.573.345.538-.4a7.948 7.948 0 001.639-1.638l.4-.538-.346-.574-.486-.809c.1-.21.19-.425.267-.644l.917-.229.65-.162.097-.662a7.933 7.933 0 000-2.318l-.098-.662-.65-.162-.916-.229a6.63 6.63 0 00-.267-.644l.486-.81.345-.573-.4-.538a7.95 7.95 0 00-1.638-1.639l-.538-.4-.574.346-.809.486a6.62 6.62 0 00-.644-.267L9.983.832zM5.115 3.165c.469-.28.977-.49 1.506-.625l.366-1.466c.672-.099 1.354-.099 2.026 0l.366 1.466c.53.134 1.037.344 1.506.625l1.295-.778a6.953 6.953 0 011.433 1.433l-.777 1.295c.28.469.49.977.624 1.506l1.466.366c.099.672.099 1.354 0 2.026l-1.466.366a5.622 5.622 0 01-.625 1.506l.778 1.295a6.956 6.956 0 01-1.433 1.433l-1.295-.777c-.469.28-.977.49-1.506.624l-.366 1.466c-.672.099-1.354.099-2.026 0l-.366-1.466a5.622 5.622 0 01-1.506-.625l-1.295.778a6.953 6.953 0 01-1.433-1.433l.778-1.295c-.28-.469-.49-.977-.625-1.506l-1.466-.366c-.099-.672-.099-1.354 0-2.026l1.466-.366c.134-.53.344-1.037.625-1.506L2.387 3.82A6.95 6.95 0 013.82 2.387l1.295.778zM10 8a2 2 0 11-4 0 2 2 0 014 0zm-2 3a3 3 0 100-6 3 3 0 000 6z" class="icon" clip-rule="evenodd"/>
  </g>
</svg>
