<svg width="15" height="15" viewBox="0 0 15 15" fill="none" xmlns="http://www.w3.org/2000/svg">
<path fill-rule="evenodd" clip-rule="evenodd" d="M11 6.47473C11 9.23616 8.76142 11.4747 6 11.4747C3.23858 11.4747 1 9.23616 1 6.47473C1 3.71331 3.23858 1.47473 6 1.47473C8.76142 1.47473 11 3.71331 11 6.47473ZM9.87442 11.0563C8.82908 11.9412 7.47685 12.4747 6 12.4747C2.68629 12.4747 0 9.78844 0 6.47473C0 3.16102 2.68629 0.474731 6 0.474731C9.31371 0.474731 12 3.16102 12 6.47473C12 7.95158 11.4664 9.30381 10.5815 10.3492L14.3536 14.1212L13.6464 14.8283L9.87442 11.0563Z" fill="#333333"/>
</svg>
