<svg width="21" height="21" viewBox="0 0 16 16" fill="none" xmlns="http://www.w3.org/2000/svg">
<path d="M0 2C0 0.895431 0.895431 0 2 0H14C15.1046 0 16 0.895431 16 2V14C16 15.1046 15.1046 16 14 16H2C0.895431 16 0 15.1046 0 14V2Z" fill="#FFCA57"/>
<path fill-rule="evenodd" clip-rule="evenodd" d="M13.3537 8.35347L10.3537 11.3535L9.64662 10.6464L11.793 8.49999L4.20714 8.49999L6.35355 10.6464L5.64645 11.3535L2.64645 8.35351L2.29289 7.99996L2.64645 7.6464L5.64645 4.6464L6.35355 5.35351L4.20707 7.49999L11.7931 7.49999L9.64662 5.35347L10.3537 4.64636L13.3537 7.64636L13.7073 7.99992L13.3537 8.35347Z" fill="black"/>
</svg>
